<svg xmlns="http://www.w3.org/2000/svg" xmlns:xlink="http://www.w3.org/1999/xlink" width="300" zoomAndPan="magnify" viewBox="0 0 375 374.999991" height="80" preserveAspectRatio="xMidYMid meet" version="1.0"><defs><filter x="0%" y="0%" width="100%" height="100%" id="id1"><feColorMatrix values="0 0 0 0 1 0 0 0 0 1 0 0 0 0 1 0 0 0 1 0" color-interpolation-filters="sRGB"/></filter><g/><clipPath id="id2"><path d="M 97.6875 150.636719 L 173.835938 150.636719 L 173.835938 227.886719 L 97.6875 227.886719 Z M 97.6875 150.636719 " clip-rule="nonzero"/></clipPath><mask id="id3"><g filter="url(#id1)"><rect x="-37.5" width="450" fill="#000000" y="-37.499999" height="449.999989" fill-opacity="0.698"/></g></mask><clipPath id="id4"><path d="M 1 1 L 76.835938 1 L 76.835938 77.886719 L 1 77.886719 Z M 1 1 " clip-rule="nonzero"/></clipPath><clipPath id="id5"><path d="M 0.6875 0.71875 L 76.835938 0.71875 L 76.835938 77.886719 L 0.6875 77.886719 Z M 0.6875 0.71875 " clip-rule="nonzero"/></clipPath><clipPath id="id6"><path d="M 1 20 L 76.835938 20 L 76.835938 77.886719 L 1 77.886719 Z M 1 20 " clip-rule="nonzero"/></clipPath><clipPath id="id7"><rect x="0" width="77" y="0" height="78"/></clipPath></defs><g clip-path="url(#id2)"><g mask="url(#id3)"><g transform="matrix(1, 0, 0, 1, 97, 150)"><g clip-path="url(#id7)"><g clip-path="url(#id4)"><path fill="#5462ff" d="M 6.390625 42.335938 C 6.390625 42.335938 6.644531 42.050781 6.675781 41.765625 C 6.707031 41.511719 6.488281 41.257812 5.535156 41.351562 C 5.027344 41.226562 4.492188 41.132812 3.984375 40.972656 C 3.601562 40.625 3.222656 40.242188 2.84375 39.832031 L 1.734375 40.210938 C 1.734375 40.210938 1.734375 40.273438 1.734375 40.433594 C 1.734375 40.59375 1.703125 40.847656 1.734375 41.289062 C 1.765625 42.144531 1.765625 43.699219 2.175781 46.332031 C 2.273438 46.996094 2.429688 47.726562 2.621094 48.519531 C 2.8125 49.3125 3.03125 50.167969 3.347656 51.121094 C 3.921875 52.992188 4.777344 55.148438 6.042969 57.558594 C 7.34375 59.9375 9.054688 62.566406 11.527344 65.199219 C 13.964844 67.832031 17.132812 70.464844 21.191406 72.652344 C 21.191406 72.652344 21.382812 72.777344 21.761719 72.96875 C 22.140625 73.191406 22.742188 73.476562 23.503906 73.855469 C 25.027344 74.585938 27.339844 75.539062 30.347656 76.296875 C 30.730469 76.394531 31.109375 76.488281 31.523438 76.550781 C 31.933594 76.648438 32.347656 76.710938 32.757812 76.804688 C 33.613281 76.933594 34.46875 77.089844 35.421875 77.15625 C 35.894531 77.1875 36.339844 77.25 36.847656 77.28125 C 37.320312 77.3125 37.828125 77.3125 38.304688 77.34375 C 38.8125 77.34375 39.316406 77.34375 39.824219 77.34375 C 40.332031 77.34375 40.871094 77.3125 41.378906 77.28125 C 43.5 77.15625 45.71875 76.835938 48 76.265625 C 50.28125 75.695312 52.597656 74.902344 54.878906 73.792969 C 54.878906 73.792969 54.910156 73.792969 54.972656 73.761719 C 55.035156 73.730469 55.132812 73.699219 55.257812 73.636719 C 55.511719 73.507812 55.859375 73.316406 56.335938 73.0625 C 56.8125 72.84375 57.382812 72.460938 58.046875 72.082031 C 58.394531 71.890625 58.742188 71.636719 59.125 71.414062 C 59.503906 71.160156 59.917969 70.90625 60.296875 70.621094 C 61.945312 69.480469 63.878906 67.925781 65.8125 65.929688 C 66.285156 65.421875 66.792969 64.914062 67.269531 64.3125 C 67.523438 64.027344 67.777344 63.742188 67.996094 63.457031 C 68.21875 63.136719 68.472656 62.851562 68.726562 62.535156 C 68.851562 62.378906 68.980469 62.21875 69.105469 62.058594 C 69.234375 61.902344 69.328125 61.742188 69.457031 61.554688 C 69.675781 61.234375 69.929688 60.886719 70.152344 60.539062 C 70.375 60.191406 70.597656 59.839844 70.816406 59.492188 C 70.945312 59.300781 71.039062 59.144531 71.167969 58.953125 C 71.261719 58.761719 71.386719 58.570312 71.484375 58.382812 C 72.371094 56.890625 73.164062 55.242188 73.859375 53.5 C 74.589844 51.753906 75.160156 49.914062 75.601562 47.949219 C 75.855469 46.964844 76.015625 45.984375 76.171875 44.96875 C 76.300781 43.953125 76.425781 42.90625 76.492188 41.859375 C 76.617188 39.769531 76.617188 37.613281 76.394531 35.457031 C 75.953125 31.109375 74.746094 26.671875 72.71875 22.515625 C 70.691406 18.363281 67.839844 14.527344 64.382812 11.324219 C 60.929688 8.183594 56.84375 5.617188 52.5 3.902344 C 48.128906 2.191406 43.5 1.300781 39 1.300781 C 34.5 1.269531 30.097656 2 26.132812 3.425781 C 24.136719 4.125 22.269531 4.980469 20.527344 5.933594 C 18.78125 6.914062 17.167969 7.992188 15.644531 9.136719 C 14.15625 10.277344 12.824219 11.511719 11.589844 12.78125 C 10.382812 14.050781 9.308594 15.351562 8.355469 16.617188 C 6.488281 19.1875 5.125 21.722656 4.140625 24.007812 C 3.160156 26.289062 2.589844 28.320312 2.207031 29.90625 C 2.050781 30.699219 1.890625 31.394531 1.796875 31.96875 C 1.703125 32.539062 1.636719 33.011719 1.605469 33.332031 C 1.605469 33.332031 1.671875 32.980469 1.765625 32.347656 C 1.828125 32.03125 1.890625 31.617188 1.988281 31.140625 C 2.082031 30.667969 2.175781 30.128906 2.367188 29.558594 C 2.460938 29.273438 2.527344 28.953125 2.621094 28.605469 C 2.652344 28.445312 2.714844 28.289062 2.746094 28.097656 C 2.8125 27.941406 2.875 27.75 2.90625 27.589844 C 3.03125 27.242188 3.128906 26.863281 3.253906 26.480469 C 3.382812 26.101562 3.539062 25.71875 3.699219 25.308594 C 4.332031 23.691406 5.125 21.914062 6.203125 20.074219 C 8.324219 16.398438 11.527344 12.433594 15.773438 9.167969 C 20.019531 5.867188 25.375 3.300781 31.109375 2.160156 C 36.8125 0.984375 42.867188 1.175781 48.285156 2.601562 C 51.011719 3.300781 53.546875 4.316406 55.890625 5.488281 C 58.207031 6.695312 60.328125 8.058594 62.132812 9.515625 C 65.8125 12.433594 68.378906 15.605469 70.058594 18.109375 C 71.738281 20.644531 72.59375 22.550781 72.847656 23.214844 C 72.847656 23.214844 72.8125 23.152344 72.75 22.992188 C 72.6875 22.835938 72.5625 22.613281 72.433594 22.328125 C 72.277344 22.042969 72.117188 21.691406 71.894531 21.28125 C 71.671875 20.867188 71.386719 20.425781 71.101562 19.886719 C 71.039062 19.757812 70.945312 19.632812 70.882812 19.472656 C 70.785156 19.347656 70.722656 19.21875 70.628906 19.0625 C 70.4375 18.773438 70.246094 18.488281 70.058594 18.203125 C 69.867188 17.886719 69.644531 17.601562 69.421875 17.285156 C 69.203125 16.96875 68.980469 16.652344 68.695312 16.300781 C 67.679688 14.96875 66.414062 13.574219 64.957031 12.117188 C 62.007812 9.261719 58.015625 6.40625 53.230469 4.441406 C 48.445312 2.445312 42.867188 1.398438 37.289062 1.652344 C 34.5 1.777344 31.710938 2.191406 29.050781 2.921875 C 26.386719 3.648438 23.820312 4.695312 21.476562 5.933594 C 16.753906 8.4375 12.886719 11.832031 10.132812 15.289062 C 7.34375 18.742188 5.566406 22.230469 4.523438 24.957031 C 3.476562 27.6875 3.0625 29.683594 2.96875 30.507812 C 2.96875 30.507812 3 30.445312 3.03125 30.285156 C 3.0625 30.128906 3.128906 29.90625 3.191406 29.621094 C 3.347656 29.050781 3.570312 28.195312 3.921875 27.113281 C 4.269531 26.035156 4.777344 24.769531 5.410156 23.339844 C 6.074219 21.914062 6.898438 20.359375 7.976562 18.710938 C 10.097656 15.476562 13.140625 11.988281 17.167969 9.105469 C 21.160156 6.21875 26.039062 3.933594 31.332031 2.855469 C 36.59375 1.777344 42.136719 1.90625 47.175781 3.109375 C 52.214844 4.285156 56.714844 6.535156 60.234375 9.136719 C 62.007812 10.433594 63.527344 11.800781 64.828125 13.128906 C 66.128906 14.460938 67.171875 15.792969 68.0625 16.96875 C 69.773438 19.378906 70.691406 21.25 71.039062 22.105469 C 71.039062 22.105469 70.5 21.058594 69.390625 19.3125 C 69.265625 19.09375 69.105469 18.871094 68.949219 18.617188 C 68.789062 18.394531 68.597656 18.140625 68.410156 17.886719 C 68.21875 17.632812 68.027344 17.378906 67.839844 17.09375 C 67.617188 16.839844 67.394531 16.554688 67.171875 16.269531 C 66.730469 15.699219 66.191406 15.128906 65.652344 14.527344 C 65.367188 14.242188 65.082031 13.921875 64.796875 13.636719 C 64.636719 13.480469 64.480469 13.320312 64.351562 13.164062 C 64.195312 13.003906 64.035156 12.878906 63.878906 12.71875 C 63.242188 12.085938 62.515625 11.511719 61.785156 10.878906 C 61.40625 10.59375 61.027344 10.277344 60.613281 9.992188 C 60.234375 9.675781 59.789062 9.421875 59.378906 9.105469 C 57.667969 7.960938 55.765625 6.882812 53.707031 5.964844 C 49.585938 4.125 44.769531 2.984375 39.855469 2.921875 C 34.945312 2.824219 29.96875 3.746094 25.597656 5.582031 C 21.191406 7.390625 17.421875 9.992188 14.503906 12.8125 C 13.046875 14.207031 11.8125 15.667969 10.765625 17.0625 C 10.226562 17.761719 9.78125 18.457031 9.339844 19.125 C 9.117188 19.441406 8.925781 19.789062 8.738281 20.105469 C 8.546875 20.425781 8.355469 20.742188 8.199219 21.058594 C 7.882812 21.691406 7.5625 22.261719 7.3125 22.835938 C 7.058594 23.375 6.804688 23.878906 6.644531 24.355469 C 6.457031 24.832031 6.296875 25.246094 6.171875 25.625 C 6.042969 26.003906 5.949219 26.324219 5.882812 26.574219 C 5.882812 26.574219 5.949219 26.386719 6.105469 26.003906 C 6.171875 25.816406 6.265625 25.59375 6.359375 25.339844 C 6.457031 25.085938 6.582031 24.800781 6.707031 24.484375 C 6.960938 23.847656 7.3125 23.152344 7.722656 22.359375 C 8.132812 21.597656 8.578125 20.742188 9.117188 19.917969 C 10.164062 18.234375 11.429688 16.585938 12.632812 15.222656 C 12.953125 14.90625 13.238281 14.558594 13.523438 14.273438 C 13.808594 13.957031 14.09375 13.703125 14.378906 13.449219 C 14.917969 12.941406 15.390625 12.527344 15.742188 12.242188 C 14.15625 13.703125 12.699219 15.320312 11.429688 17.03125 C 12.507812 15.699219 13.679688 14.429688 14.949219 13.257812 C 16.214844 12.085938 17.578125 11.007812 18.972656 10.023438 C 20.589844 8.851562 22.300781 7.835938 24.105469 6.945312 C 24.105469 6.945312 23.882812 7.074219 23.472656 7.265625 C 23.09375 7.484375 22.523438 7.804688 21.855469 8.152344 C 20.527344 8.945312 18.8125 10.085938 17.230469 11.449219 C 15.644531 12.78125 14.15625 14.335938 13.109375 15.605469 C 12.855469 15.921875 12.601562 16.238281 12.414062 16.523438 C 12.191406 16.808594 12 17.0625 11.84375 17.285156 C 11.527344 17.730469 11.335938 18.046875 11.273438 18.171875 C 11.273438 18.171875 10.132812 19.601562 11.144531 18.109375 C 11.273438 17.917969 11.429688 17.695312 11.652344 17.410156 C 11.746094 17.285156 11.875 17.125 12 16.96875 C 12.128906 16.808594 12.285156 16.652344 12.445312 16.460938 C 12.601562 16.269531 12.761719 16.078125 12.953125 15.859375 C 13.140625 15.636719 13.363281 15.414062 13.585938 15.191406 C 13.808594 14.96875 14.027344 14.683594 14.3125 14.429688 C 14.597656 14.175781 14.882812 13.890625 15.171875 13.605469 C 16.40625 12.464844 18.023438 11.132812 20.175781 9.738281 C 22.332031 8.375 25.089844 6.980469 28.542969 5.902344 C 28.542969 5.902344 28.796875 5.804688 29.304688 5.679688 C 29.558594 5.617188 29.875 5.488281 30.253906 5.394531 C 30.632812 5.296875 31.078125 5.171875 31.585938 5.042969 C 33.613281 4.570312 36.65625 4.0625 40.710938 4.21875 C 42.707031 4.285156 44.957031 4.570312 47.367188 5.171875 C 49.777344 5.742188 52.34375 6.695312 54.941406 8.023438 C 55.097656 8.121094 55.257812 8.183594 55.449219 8.277344 C 55.605469 8.375 55.765625 8.46875 55.921875 8.566406 C 56.242188 8.753906 56.589844 8.945312 56.90625 9.136719 C 57.222656 9.324219 57.539062 9.546875 57.886719 9.738281 C 58.046875 9.832031 58.207031 9.929688 58.363281 10.054688 C 58.523438 10.183594 58.679688 10.277344 58.839844 10.402344 C 60.136719 11.292969 61.40625 12.339844 62.640625 13.480469 C 63.878906 14.621094 65.050781 15.890625 66.160156 17.285156 C 66.445312 17.632812 66.730469 17.984375 66.984375 18.363281 C 67.238281 18.742188 67.523438 19.09375 67.777344 19.472656 C 68.28125 20.234375 68.789062 21.027344 69.234375 21.851562 C 70.152344 23.5 70.976562 25.246094 71.640625 27.113281 C 72.308594 28.984375 72.8125 30.953125 73.164062 33.011719 C 73.859375 37.105469 73.859375 41.542969 72.910156 45.984375 C 71.992188 50.390625 70.121094 54.832031 67.300781 58.792969 C 64.480469 62.726562 60.742188 66.246094 56.242188 68.78125 C 53.992188 70.050781 51.582031 71.066406 49.046875 71.828125 C 46.511719 72.589844 43.847656 73 41.15625 73.128906 C 38.460938 73.253906 35.707031 73.0625 32.980469 72.492188 C 30.285156 71.953125 27.59375 71.066406 25.058594 69.828125 L 24.105469 69.355469 L 23.1875 68.847656 L 22.710938 68.59375 L 22.269531 68.308594 L 21.347656 67.738281 L 20.460938 67.132812 L 20.019531 66.816406 L 19.605469 66.5 L 18.75 65.835938 L 17.925781 65.136719 L 17.515625 64.789062 L 17.132812 64.40625 L 16.34375 63.675781 L 15.582031 62.917969 L 15.203125 62.535156 L 14.851562 62.125 L 14.125 61.300781 L 13.457031 60.441406 C 13.238281 60.15625 13.015625 59.871094 12.792969 59.585938 C 12.570312 59.300781 12.347656 59.015625 12.160156 58.699219 C 8.671875 54.039062 6.707031 48.265625 6.390625 42.335938 Z M 6.390625 42.335938 " fill-opacity="1" fill-rule="nonzero"/></g><g clip-path="url(#id5)"><path stroke-linecap="butt" transform="matrix(-0.316901, 0, 0, 0.317107, 76.997415, 0.827056)" fill="none" stroke-linejoin="miter" d="M 239.00052 120.994656 C 239.00052 120.994656 239.00052 123.199649 239.00052 127.301675 C 238.803298 131.403701 238.495138 137.402759 237.102256 144.904662 C 235.697048 152.394247 233.194791 161.398994 228.905208 171.10589 C 224.603298 180.800468 218.304513 191.197194 209.602083 201.101184 C 200.899653 210.894309 189.805903 220.194698 176.50573 227.302412 C 163.205556 234.397808 147.698959 239.399077 131.304862 240.901921 C 114.898439 242.503312 97.604516 240.593961 81.198093 235.099956 C 64.803996 229.605952 49.39601 220.194698 36.69983 208.098033 C 36.69983 208.098033 35.800003 207.297337 34.296184 205.695946 C 33.494969 204.89525 32.595142 203.89746 31.498094 202.702575 C 30.401045 201.495373 29.205385 200.004847 27.800177 198.502003 C 22.49983 191.99789 15.39983 182.093899 9.705039 168.605256 C 6.894622 161.904049 4.404692 154.303598 2.70365 146.099547 C 1.002608 137.895495 0.102782 129.001613 0.201393 119.799772 C 0.300004 110.59793 1.495664 101.0019 3.89931 91.504417 C 6.302955 81.994615 10.000872 72.694226 14.697226 63.800344 C 19.504518 55.00501 25.396531 46.702411 32.102087 39.299055 C 38.893927 31.994246 46.499309 25.403905 54.597746 20.094676 C 62.696183 14.797766 71.300003 10.498646 79.805211 7.39441 C 88.396704 4.302493 97.000523 2.294594 105.197571 1.198257 C 113.39462 0.10192 121.197224 -0.0951746 128.297224 0.299014 C 135.397223 0.705521 141.794619 1.801858 147.403126 2.996743 C 158.496876 5.497377 166.200869 8.798707 169.898785 10.498646 C 169.898785 10.498646 171.094445 11.102247 173.39948 12.100037 C 175.605903 13.196374 178.897049 14.797766 182.804514 17.101306 C 183.29757 17.396947 183.802952 17.704907 184.296007 18.000549 C 184.801389 18.29619 185.294445 18.702697 185.799827 18.998339 C 186.798264 19.700487 187.895313 20.402636 189.004688 21.104785 C 191.198785 22.693858 193.503819 24.295249 195.895139 26.2046 C 200.603819 29.998666 205.596007 34.494881 210.403298 39.804109 C 215.099652 45.10102 219.697395 51.100078 223.703472 57.604191 C 227.697221 64.095986 231.099305 71.2037 233.700173 78.496191 C 236.301041 85.800999 238.199305 93.204355 239.296353 100.496846 C 240.405728 107.703107 240.800173 114.699956 240.60295 121.204069 " stroke="#aadcdc" stroke-width="0.037" stroke-opacity="1" stroke-miterlimit="4"/></g><g clip-path="url(#id6)"><path stroke-linecap="butt" transform="matrix(-0.316901, 0, 0, 0.317107, 76.997415, 0.827056)" fill="none" stroke-linejoin="miter" d="M 15.202608 62.704007 C 14.401393 63.997439 13.402955 66.005337 12.194969 68.395106 C 11.097921 70.89574 9.594101 73.802882 8.29983 77.301306 C 5.600351 84.199608 2.802261 93.105808 1.298442 103.403987 C -0.205378 113.702166 -0.599822 125.404642 1.101219 137.304212 C 2.605039 149.30233 6.204344 161.497542 11.504691 172.596416 C 14.20417 178.201286 17.199483 183.498196 20.502955 188.499465 C 23.905038 193.500734 27.504344 198.095495 31.20226 202.296068 C 38.795316 210.697214 46.906079 217.299875 54.301913 222.202596 C 61.697746 227.105318 68.30469 230.394329 73.001044 232.402228 C 74.196704 232.894964 75.195141 233.400018 76.094968 233.695659 C 76.994794 234.102166 77.796009 234.397808 78.400002 234.594902 C 79.003995 234.804315 79.497051 235.001409 79.805211 235.198504 C 80.101044 235.297051 80.298266 235.395598 80.298266 235.395598 C 81.395315 235.802105 82.50469 236.196294 83.601738 236.504254 C 84.205731 236.701348 84.698787 236.898442 85.30278 237.095537 C 85.894447 237.304949 86.49844 237.403496 87.102433 237.600591 C 88.298093 237.896232 89.506079 238.302739 90.701738 238.598381 C 91.897398 238.894022 93.203995 239.201982 94.498266 239.497624 C 97.000523 240.101225 99.700002 240.495414 102.399481 241.000468 C 103.804689 241.197562 105.09896 241.29611 106.504169 241.505522 C 107.89705 241.702617 109.302259 241.801164 110.695141 241.899711 C 112.100349 241.998258 113.604168 242.096805 114.99705 242.195352 C 116.402259 242.195352 117.906078 242.2939 119.397571 242.2939 C 120.100175 242.2939 120.90139 242.2939 121.603995 242.2939 C 122.294272 242.2939 123.095488 242.195352 123.798092 242.195352 C 125.301911 242.096805 126.805731 242.096805 128.297224 241.998258 C 134.300175 241.604069 140.500348 240.704827 146.700522 239.300529 C 152.900695 237.896232 159.002258 235.900652 164.894271 233.597112 C 166.398091 233.005829 167.90191 232.402228 169.294792 231.700079 L 173.695313 229.605952 L 177.898611 227.302412 C 179.30382 226.600263 180.696702 225.70102 182.003299 224.900325 C 187.500868 221.598995 192.603993 217.804929 197.398958 213.702903 C 202.095312 209.600877 206.495833 205.20321 210.403298 200.59613 C 214.298437 196.001368 217.799131 191.197194 220.794444 186.503885 C 223.900694 181.699711 226.30434 176.796989 228.498437 172.10368 C 232.701735 162.593879 235.302603 153.60145 236.695485 145.902452 C 238.100693 138.203455 238.495138 131.896436 238.704687 127.597316 C 238.803298 125.404642 238.704687 123.704703 238.704687 122.596048 C 238.704687 121.49971 238.704687 120.896109 238.704687 120.896109 " stroke="#3aafaf" stroke-width="0.037" stroke-opacity="1" stroke-miterlimit="4"/></g><path stroke-linecap="butt" transform="matrix(-0.316901, 0, 0, 0.317107, 76.997415, 0.827056)" fill="none" stroke-linejoin="miter" d="M 22.401219 60.104826 C 22.401219 60.104826 22.795663 59.402677 23.69549 58.096927 C 24.102261 57.505644 24.595316 56.704948 25.29792 55.69484 C 26.000524 54.795597 26.703129 53.69926 27.602955 52.602923 C 31.103649 47.897295 36.403996 41.405501 43.898441 34.704294 C 47.694968 31.304416 52.095489 27.904539 56.902781 24.603209 C 61.796357 21.400426 67.293926 18.29619 73.198266 15.598462 C 84.99462 10.203004 98.898787 6.495167 113.296009 5.595924 C 127.705557 4.696681 142.497223 6.39662 156.204167 10.905153 C 169.898785 15.30282 182.200521 22.299669 192.295833 30.294308 C 202.403472 38.301265 210.095139 47.306012 215.703645 55.497746 C 221.299826 63.701797 224.701909 71.105153 226.797395 76.303516 " stroke="#3aafaf" stroke-width="0.037" stroke-opacity="1" stroke-miterlimit="4"/><path stroke-linecap="butt" transform="matrix(-0.316901, 0, 0, 0.317107, 76.997415, 0.827056)" fill="none" stroke-linejoin="miter" d="M 12.096358 116.2028 C 12.096358 116.2028 12.096358 116.005706 12.096358 115.500652 C 12.096358 115.094145 12.194969 114.404314 12.305907 113.603619 C 12.404518 112.802923 12.503129 111.694267 12.60174 110.499383 C 12.700351 109.304499 12.897573 107.900201 13.094795 106.397357 C 13.205733 105.596661 13.304344 104.795966 13.402955 103.99527 C 13.600177 103.194574 13.698789 102.295331 13.896011 101.297541 C 14.105559 100.398298 14.20417 99.400508 14.500004 98.402718 C 14.697226 97.404928 15.005386 96.39482 15.202608 95.298483 C 15.695663 93.204355 16.398268 90.999362 17.100872 88.597275 C 17.495316 87.402391 17.902087 86.306054 18.296531 85.000304 C 18.50608 84.396702 18.703302 83.805419 18.900525 83.201818 C 19.097747 82.598216 19.405906 81.994615 19.603129 81.403332 C 20.096184 80.196129 20.601566 78.902698 21.205559 77.596948 C 21.797226 76.303516 22.401219 74.997766 23.005212 73.704335 C 24.299483 71.105153 25.704691 68.505972 27.294795 65.795925 C 30.499656 60.499014 34.296184 55.202104 38.696705 50.102288 C 47.694968 40.001204 59.2941 30.799362 72.397051 24.295249 C 85.500002 17.803455 99.995835 13.99707 113.998613 13.196374 C 128.00139 12.395679 141.400175 14.30503 152.493924 17.902002 C 158.102431 19.700487 163.205556 21.696068 167.704688 23.999608 C 172.20382 26.303148 176.098959 28.495822 179.30382 30.700815 C 180.105035 31.205869 180.893924 31.797152 181.695139 32.302206 C 182.397743 32.794942 183.100347 33.398544 183.802952 33.805051 C 184.505556 34.297787 185.097222 34.802841 185.701215 35.197029 C 186.305208 35.702084 186.798264 36.096272 187.303646 36.502779 C 188.302083 37.303475 189.20191 38.104171 189.904514 38.695454 C 190.594792 39.397602 191.198785 39.902657 191.605556 40.296845 " stroke="#aadcdc" stroke-width="0.037" stroke-opacity="1" stroke-miterlimit="4"/></g></g></g></g><g fill="#fffdfd" fill-opacity="1"><g transform="translate(103.469222, 194.668098)"><g><path d="M 1.671875 0.03125 C 1.285156 0.03125 1.09375 -0.078125 1.09375 -0.296875 L 1.09375 -10.203125 C 1.09375 -10.421875 1.285156 -10.53125 1.671875 -10.53125 L 2.03125 -10.53125 C 2.175781 -10.53125 2.289062 -10.503906 2.375 -10.453125 C 2.46875 -10.410156 2.546875 -10.335938 2.609375 -10.234375 L 6.09375 -3.53125 C 6.226562 -3.269531 6.359375 -2.953125 6.484375 -2.578125 L 6.5625 -2.609375 C 6.476562 -2.960938 6.4375 -3.289062 6.4375 -3.59375 L 6.4375 -10.203125 C 6.4375 -10.421875 6.625 -10.53125 7 -10.53125 L 7.1875 -10.53125 C 7.5625 -10.53125 7.75 -10.421875 7.75 -10.203125 L 7.75 -0.296875 C 7.75 -0.078125 7.5625 0.03125 7.1875 0.03125 L 6.875 0.03125 C 6.59375 0.03125 6.410156 -0.0390625 6.328125 -0.1875 L 2.765625 -7.125 C 2.617188 -7.382812 2.488281 -7.695312 2.375 -8.0625 L 2.296875 -8.046875 C 2.378906 -7.691406 2.421875 -7.359375 2.421875 -7.046875 L 2.421875 -0.296875 C 2.421875 -0.078125 2.226562 0.03125 1.84375 0.03125 Z M 1.671875 0.03125 "/></g></g></g><g fill="#fffdfd" fill-opacity="1"><g transform="translate(112.319212, 194.668098)"><g><path d="M 4.375 0.09375 C 3.3125 0.09375 2.484375 -0.171875 1.890625 -0.703125 C 1.304688 -1.234375 1.015625 -1.972656 1.015625 -2.921875 L 1.015625 -10.203125 C 1.015625 -10.421875 1.207031 -10.53125 1.59375 -10.53125 L 1.796875 -10.53125 C 2.179688 -10.53125 2.375 -10.421875 2.375 -10.203125 L 2.375 -2.875 C 2.375 -2.332031 2.5625 -1.890625 2.9375 -1.546875 C 3.3125 -1.210938 3.789062 -1.046875 4.375 -1.046875 C 4.957031 -1.046875 5.4375 -1.21875 5.8125 -1.5625 C 6.1875 -1.90625 6.375 -2.34375 6.375 -2.875 L 6.375 -10.203125 C 6.375 -10.421875 6.5625 -10.53125 6.9375 -10.53125 L 7.15625 -10.53125 C 7.53125 -10.53125 7.71875 -10.421875 7.71875 -10.203125 L 7.71875 -2.921875 C 7.71875 -1.972656 7.425781 -1.234375 6.84375 -0.703125 C 6.269531 -0.171875 5.445312 0.09375 4.375 0.09375 Z M 4.375 0.09375 "/></g></g></g><g fill="#fffdfd" fill-opacity="1"><g transform="translate(121.064203, 194.668098)"><g><path d="M 3.3125 0.03125 C 2.9375 0.03125 2.75 -0.078125 2.75 -0.296875 L 2.75 -9.359375 L 0.578125 -9.359375 C 0.390625 -9.359375 0.296875 -9.507812 0.296875 -9.8125 L 0.296875 -10.046875 C 0.296875 -10.347656 0.390625 -10.5 0.578125 -10.5 L 6.21875 -10.5 C 6.332031 -10.5 6.410156 -10.460938 6.453125 -10.390625 C 6.503906 -10.328125 6.53125 -10.210938 6.53125 -10.046875 L 6.53125 -9.8125 C 6.53125 -9.644531 6.503906 -9.523438 6.453125 -9.453125 C 6.410156 -9.390625 6.332031 -9.359375 6.21875 -9.359375 L 4.09375 -9.359375 L 4.09375 -0.296875 C 4.09375 -0.078125 3.90625 0.03125 3.53125 0.03125 Z M 3.3125 0.03125 "/></g></g></g><g fill="#fffdfd" fill-opacity="1"><g transform="translate(127.874192, 194.668098)"><g><path d="M 1.71875 0.03125 C 1.34375 0.03125 1.15625 -0.078125 1.15625 -0.296875 L 1.15625 -10.046875 C 1.15625 -10.210938 1.1875 -10.328125 1.25 -10.390625 C 1.3125 -10.460938 1.414062 -10.5 1.5625 -10.5 L 3.78125 -10.5 C 4.769531 -10.5 5.503906 -10.285156 5.984375 -9.859375 C 6.460938 -9.441406 6.703125 -8.769531 6.703125 -7.84375 C 6.703125 -7.226562 6.578125 -6.707031 6.328125 -6.28125 C 6.085938 -5.851562 5.753906 -5.53125 5.328125 -5.3125 L 5.328125 -5.25 C 5.523438 -5.144531 5.695312 -4.945312 5.84375 -4.65625 C 6 -4.375 6.171875 -3.945312 6.359375 -3.375 L 7.3125 -0.421875 C 7.332031 -0.328125 7.34375 -0.253906 7.34375 -0.203125 C 7.34375 -0.046875 7.148438 0.03125 6.765625 0.03125 L 6.515625 0.03125 C 6.367188 0.03125 6.242188 0.0078125 6.140625 -0.03125 C 6.035156 -0.0820312 5.972656 -0.140625 5.953125 -0.203125 L 5.0625 -3.15625 C 4.875 -3.71875 4.664062 -4.101562 4.4375 -4.3125 C 4.21875 -4.519531 3.890625 -4.625 3.453125 -4.625 L 2.5 -4.625 L 2.5 -0.296875 C 2.5 -0.078125 2.3125 0.03125 1.9375 0.03125 Z M 4 -5.765625 C 4.363281 -5.765625 4.671875 -5.945312 4.921875 -6.3125 C 5.179688 -6.675781 5.3125 -7.109375 5.3125 -7.609375 C 5.3125 -8.191406 5.1875 -8.628906 4.9375 -8.921875 C 4.695312 -9.210938 4.359375 -9.359375 3.921875 -9.359375 L 2.484375 -9.359375 L 2.484375 -5.765625 Z M 4 -5.765625 "/></g></g></g><g fill="#fffdfd" fill-opacity="1"><g transform="translate(135.569188, 194.668098)"><g><path d="M 1.859375 0.03125 C 1.484375 0.03125 1.296875 -0.078125 1.296875 -0.296875 L 1.296875 -10.203125 C 1.296875 -10.421875 1.484375 -10.53125 1.859375 -10.53125 L 2.078125 -10.53125 C 2.453125 -10.53125 2.640625 -10.421875 2.640625 -10.203125 L 2.640625 -0.296875 C 2.640625 -0.078125 2.453125 0.03125 2.078125 0.03125 Z M 1.859375 0.03125 "/></g></g></g><g fill="#fffdfd" fill-opacity="1"><g transform="translate(139.49918, 194.668098)"><g><path d="M 3.3125 0.03125 C 2.9375 0.03125 2.75 -0.078125 2.75 -0.296875 L 2.75 -9.359375 L 0.578125 -9.359375 C 0.390625 -9.359375 0.296875 -9.507812 0.296875 -9.8125 L 0.296875 -10.046875 C 0.296875 -10.347656 0.390625 -10.5 0.578125 -10.5 L 6.21875 -10.5 C 6.332031 -10.5 6.410156 -10.460938 6.453125 -10.390625 C 6.503906 -10.328125 6.53125 -10.210938 6.53125 -10.046875 L 6.53125 -9.8125 C 6.53125 -9.644531 6.503906 -9.523438 6.453125 -9.453125 C 6.410156 -9.390625 6.332031 -9.359375 6.21875 -9.359375 L 4.09375 -9.359375 L 4.09375 -0.296875 C 4.09375 -0.078125 3.90625 0.03125 3.53125 0.03125 Z M 3.3125 0.03125 "/></g></g></g><g fill="#fffdfd" fill-opacity="1"><g transform="translate(146.30917, 194.668098)"><g><path d="M 1.859375 0.03125 C 1.484375 0.03125 1.296875 -0.078125 1.296875 -0.296875 L 1.296875 -10.203125 C 1.296875 -10.421875 1.484375 -10.53125 1.859375 -10.53125 L 2.078125 -10.53125 C 2.453125 -10.53125 2.640625 -10.421875 2.640625 -10.203125 L 2.640625 -0.296875 C 2.640625 -0.078125 2.453125 0.03125 2.078125 0.03125 Z M 1.859375 0.03125 "/></g></g></g><g fill="#fffdfd" fill-opacity="1"><g transform="translate(150.239162, 194.668098)"><g><path d="M 4.484375 0.09375 C 3.265625 0.09375 2.332031 -0.347656 1.6875 -1.234375 C 1.050781 -2.128906 0.734375 -3.476562 0.734375 -5.28125 C 0.734375 -8.820312 1.984375 -10.59375 4.484375 -10.59375 C 6.992188 -10.59375 8.25 -8.820312 8.25 -5.28125 C 8.25 -3.476562 7.925781 -2.128906 7.28125 -1.234375 C 6.644531 -0.347656 5.710938 0.09375 4.484375 0.09375 Z M 4.5 -1.046875 C 6.082031 -1.046875 6.875 -2.457031 6.875 -5.28125 C 6.875 -8.0625 6.082031 -9.453125 4.5 -9.453125 C 3.707031 -9.453125 3.113281 -9.113281 2.71875 -8.4375 C 2.320312 -7.757812 2.125 -6.707031 2.125 -5.28125 C 2.125 -2.457031 2.914062 -1.046875 4.5 -1.046875 Z M 4.5 -1.046875 "/></g></g></g><g fill="#fffdfd" fill-opacity="1"><g transform="translate(159.224158, 194.668098)"><g><path d="M 1.671875 0.03125 C 1.285156 0.03125 1.09375 -0.078125 1.09375 -0.296875 L 1.09375 -10.203125 C 1.09375 -10.421875 1.285156 -10.53125 1.671875 -10.53125 L 2.03125 -10.53125 C 2.175781 -10.53125 2.289062 -10.503906 2.375 -10.453125 C 2.46875 -10.410156 2.546875 -10.335938 2.609375 -10.234375 L 6.09375 -3.53125 C 6.226562 -3.269531 6.359375 -2.953125 6.484375 -2.578125 L 6.5625 -2.609375 C 6.476562 -2.960938 6.4375 -3.289062 6.4375 -3.59375 L 6.4375 -10.203125 C 6.4375 -10.421875 6.625 -10.53125 7 -10.53125 L 7.1875 -10.53125 C 7.5625 -10.53125 7.75 -10.421875 7.75 -10.203125 L 7.75 -0.296875 C 7.75 -0.078125 7.5625 0.03125 7.1875 0.03125 L 6.875 0.03125 C 6.59375 0.03125 6.410156 -0.0390625 6.328125 -0.1875 L 2.765625 -7.125 C 2.617188 -7.382812 2.488281 -7.695312 2.375 -8.0625 L 2.296875 -8.046875 C 2.378906 -7.691406 2.421875 -7.359375 2.421875 -7.046875 L 2.421875 -0.296875 C 2.421875 -0.078125 2.226562 0.03125 1.84375 0.03125 Z M 1.671875 0.03125 "/></g></g></g><g fill="#fffdfd" fill-opacity="1"><g transform="translate(177.570857, 210.418097)"><g><path d="M 6.890625 0.125 C 5.398438 0.125 4.65625 -0.304688 4.65625 -1.171875 L 4.65625 -40.078125 C 4.65625 -40.941406 5.398438 -41.375 6.890625 -41.375 L 7.78125 -41.375 C 9.226562 -41.375 9.953125 -40.941406 9.953125 -40.078125 L 9.953125 -23.390625 L 25.46875 -23.390625 L 25.46875 -40.078125 C 25.46875 -40.941406 26.210938 -41.375 27.703125 -41.375 L 28.53125 -41.375 C 30.019531 -41.375 30.765625 -40.941406 30.765625 -40.078125 L 30.765625 -1.171875 C 30.765625 -0.304688 30.019531 0.125 28.53125 0.125 L 27.703125 0.125 C 26.210938 0.125 25.46875 -0.304688 25.46875 -1.171875 L 25.46875 -18.921875 L 9.953125 -18.921875 L 9.953125 -1.171875 C 9.953125 -0.304688 9.226562 0.125 7.78125 0.125 Z M 6.890625 0.125 "/></g></g></g><g fill="#fffdfd" fill-opacity="1"><g transform="translate(212.989999, 210.418097)"><g><path d="M 17.203125 0.359375 C 13.003906 0.359375 9.753906 -0.679688 7.453125 -2.765625 C 5.148438 -4.847656 4 -7.757812 4 -11.5 L 4 -40.078125 C 4 -40.941406 4.75 -41.375 6.25 -41.375 L 7.078125 -41.375 C 8.566406 -41.375 9.3125 -40.941406 9.3125 -40.078125 L 9.3125 -11.3125 C 9.3125 -9.195312 10.046875 -7.46875 11.515625 -6.125 C 12.992188 -4.789062 14.890625 -4.125 17.203125 -4.125 C 19.484375 -4.125 21.359375 -4.800781 22.828125 -6.15625 C 24.304688 -7.507812 25.046875 -9.226562 25.046875 -11.3125 L 25.046875 -40.078125 C 25.046875 -40.941406 25.789062 -41.375 27.28125 -41.375 L 28.109375 -41.375 C 29.609375 -41.375 30.359375 -40.941406 30.359375 -40.078125 L 30.359375 -11.5 C 30.359375 -7.757812 29.21875 -4.847656 26.9375 -2.765625 C 24.65625 -0.679688 21.410156 0.359375 17.203125 0.359375 Z M 17.203125 0.359375 "/></g></g></g><g fill="#fffdfd" fill-opacity="1"><g transform="translate(247.34833, 210.418097)"><g><path d="M 6.25 0 C 5.65625 0 5.226562 -0.132812 4.96875 -0.40625 C 4.71875 -0.6875 4.59375 -1.140625 4.59375 -1.765625 L 4.59375 -39.484375 C 4.59375 -40.117188 4.71875 -40.570312 4.96875 -40.84375 C 5.226562 -41.113281 5.65625 -41.25 6.25 -41.25 L 16.4375 -41.25 C 20.132812 -41.25 22.914062 -40.316406 24.78125 -38.453125 C 26.644531 -36.585938 27.578125 -34.046875 27.578125 -30.828125 C 27.578125 -28.859375 27.046875 -26.988281 25.984375 -25.21875 C 24.929688 -23.457031 23.695312 -22.335938 22.28125 -21.859375 L 22.28125 -21.625 C 23.8125 -21.082031 25.3125 -20.101562 26.78125 -18.6875 C 28.257812 -17.269531 29 -14.988281 29 -11.84375 C 29 -7.800781 27.945312 -4.816406 25.84375 -2.890625 C 23.738281 -0.960938 20.601562 0 16.4375 0 Z M 16.03125 -23.453125 C 17.832031 -23.453125 19.296875 -24.109375 20.421875 -25.421875 C 21.546875 -26.742188 22.109375 -28.390625 22.109375 -30.359375 C 22.109375 -32.554688 21.601562 -34.175781 20.59375 -35.21875 C 19.59375 -36.257812 18.03125 -36.78125 15.90625 -36.78125 L 9.90625 -36.78125 L 9.90625 -23.453125 Z M 17.5 -4.484375 C 19.382812 -4.484375 20.867188 -5.160156 21.953125 -6.515625 C 23.035156 -7.867188 23.578125 -9.722656 23.578125 -12.078125 C 23.578125 -14.242188 22.976562 -15.9375 21.78125 -17.15625 C 20.582031 -18.375 18.878906 -18.984375 16.671875 -18.984375 L 9.90625 -18.984375 L 9.90625 -4.484375 Z M 17.5 -4.484375 "/></g></g></g></svg>