<svg xmlns="http://www.w3.org/2000/svg" xmlns:xlink="http://www.w3.org/1999/xlink" width="200" zoomAndPan="magnify" viewBox="0 0 375 374.999991" height="50" preserveAspectRatio="xMidYMid meet" version="1.0"><defs><filter x="0%" y="0%" width="100%" height="100%" id="id1"><feColorMatrix values="0 0 0 0 1 0 0 0 0 1 0 0 0 0 1 0 0 0 1 0" color-interpolation-filters="sRGB"/></filter><g/><clipPath id="id2"><path d="M 9.441406 70 L 242.492188 70 L 242.492188 305.203125 L 9.441406 305.203125 Z M 9.441406 70 " clip-rule="nonzero"/></clipPath><mask id="id3"><g filter="url(#id1)"><rect x="-37.5" width="450" fill="#000000" y="-37.499999" height="449.999989" fill-opacity="0.698"/></g></mask><clipPath id="id4"><path d="M 0.441406 0.078125 L 233.492188 0.078125 L 233.492188 234 L 0.441406 234 Z M 0.441406 0.078125 " clip-rule="nonzero"/></clipPath><clipPath id="id5"><path d="M 2 60 L 233.492188 60 L 233.492188 235 L 2 235 Z M 2 60 " clip-rule="nonzero"/></clipPath><clipPath id="id6"><rect x="0" width="234" y="0" height="236"/></clipPath></defs><g clip-path="url(#id2)"><g mask="url(#id3)"><g transform="matrix(1, 0, 0, 1, 9, 70)"><g clip-path="url(#id6)"><path fill="#5462ff" d="M 17.832031 126.832031 C 17.832031 126.832031 18.605469 125.960938 18.703125 125.089844 C 18.796875 124.316406 18.121094 123.542969 15.222656 123.832031 C 13.675781 123.445312 12.035156 123.15625 10.488281 122.671875 C 9.328125 121.609375 8.167969 120.449219 7.011719 119.195312 L 3.628906 120.355469 C 3.628906 120.355469 3.628906 120.546875 3.628906 121.03125 C 3.628906 121.515625 3.53125 122.289062 3.628906 123.640625 C 3.726562 126.25 3.726562 130.988281 4.980469 139.011719 C 5.269531 141.042969 5.753906 143.265625 6.335938 145.683594 C 6.914062 148.097656 7.589844 150.707031 8.554688 153.609375 C 10.296875 159.3125 12.90625 165.886719 16.769531 173.234375 C 20.730469 180.484375 25.949219 188.507812 33.484375 196.53125 C 40.925781 204.554688 50.585938 212.578125 62.957031 219.25 C 62.957031 219.25 63.535156 219.636719 64.695312 220.214844 C 65.855469 220.894531 67.691406 221.761719 70.007812 222.921875 C 74.648438 225.148438 81.699219 228.046875 90.878906 230.367188 C 92.039062 230.65625 93.199219 230.945312 94.453125 231.140625 C 95.710938 231.429688 96.96875 231.625 98.222656 231.914062 C 100.832031 232.300781 103.441406 232.785156 106.339844 232.976562 C 107.789062 233.074219 109.140625 233.265625 110.6875 233.363281 C 112.136719 233.460938 113.683594 233.460938 115.132812 233.558594 C 116.679688 233.558594 118.222656 233.558594 119.769531 233.558594 C 121.316406 233.558594 122.960938 233.460938 124.503906 233.363281 C 130.980469 232.976562 137.742188 232.011719 144.699219 230.269531 C 151.65625 228.53125 158.710938 226.113281 165.667969 222.730469 C 165.667969 222.730469 165.761719 222.730469 165.957031 222.632812 C 166.148438 222.535156 166.441406 222.441406 166.828125 222.246094 C 167.597656 221.859375 168.664062 221.28125 170.113281 220.507812 C 171.5625 219.828125 173.300781 218.667969 175.328125 217.507812 C 176.390625 216.929688 177.453125 216.15625 178.613281 215.480469 C 179.773438 214.707031 181.03125 213.933594 182.191406 213.0625 C 187.214844 209.582031 193.109375 204.84375 199.003906 198.753906 C 200.453125 197.207031 201.996094 195.660156 203.445312 193.824219 C 204.21875 192.953125 204.992188 192.085938 205.667969 191.214844 C 206.34375 190.246094 207.117188 189.378906 207.890625 188.410156 C 208.277344 187.929688 208.664062 187.445312 209.050781 186.960938 C 209.4375 186.476562 209.726562 185.996094 210.113281 185.414062 C 210.789062 184.449219 211.5625 183.382812 212.238281 182.320312 C 212.914062 181.257812 213.59375 180.195312 214.269531 179.128906 C 214.65625 178.550781 214.945312 178.066406 215.332031 177.488281 C 215.621094 176.90625 216.007812 176.328125 216.296875 175.746094 C 219.003906 171.203125 221.417969 166.175781 223.542969 160.859375 C 225.765625 155.542969 227.507812 149.933594 228.859375 143.941406 C 229.632812 140.945312 230.113281 137.949219 230.597656 134.855469 C 230.984375 131.761719 231.371094 128.570312 231.5625 125.378906 C 231.949219 119 231.949219 112.425781 231.273438 105.851562 C 229.921875 92.609375 226.25 79.074219 220.066406 66.410156 C 213.882812 53.746094 205.1875 42.046875 194.652344 32.285156 C 184.121094 22.714844 171.65625 14.882812 158.421875 9.664062 C 145.085938 4.441406 130.980469 1.734375 117.257812 1.734375 C 103.539062 1.640625 90.105469 3.863281 78.027344 8.214844 C 71.941406 10.339844 66.242188 12.949219 60.925781 15.851562 C 55.613281 18.847656 50.683594 22.132812 46.046875 25.613281 C 41.503906 29.09375 37.445312 32.863281 33.679688 36.730469 C 30.007812 40.597656 26.722656 44.5625 23.824219 48.429688 C 18.121094 56.257812 13.96875 63.992188 10.972656 70.953125 C 7.976562 77.914062 6.238281 84.101562 5.078125 88.933594 C 4.59375 91.351562 4.113281 93.480469 3.820312 95.21875 C 3.53125 96.957031 3.339844 98.410156 3.242188 99.375 C 3.242188 99.375 3.433594 98.3125 3.726562 96.378906 C 3.917969 95.414062 4.113281 94.15625 4.402344 92.707031 C 4.691406 91.253906 4.980469 89.613281 5.5625 87.871094 C 5.851562 87 6.042969 86.035156 6.335938 84.972656 C 6.429688 84.488281 6.625 84.003906 6.71875 83.425781 C 6.914062 82.941406 7.105469 82.359375 7.203125 81.878906 C 7.589844 80.816406 7.878906 79.65625 8.265625 78.496094 C 8.652344 77.335938 9.136719 76.175781 9.621094 74.917969 C 11.550781 69.988281 13.96875 64.574219 17.253906 58.964844 C 23.726562 47.753906 33.484375 35.667969 46.433594 25.710938 C 59.378906 15.65625 75.710938 7.828125 93.199219 4.347656 C 110.589844 0.769531 129.046875 1.347656 145.570312 5.699219 C 153.878906 7.828125 161.609375 10.921875 168.757812 14.496094 C 175.8125 18.171875 182.285156 22.328125 187.792969 26.773438 C 199.003906 35.667969 206.828125 45.335938 211.949219 52.972656 C 217.070312 60.707031 219.679688 66.507812 220.453125 68.539062 C 220.453125 68.539062 220.355469 68.34375 220.164062 67.859375 C 219.96875 67.378906 219.582031 66.699219 219.195312 65.832031 C 218.714844 64.960938 218.230469 63.898438 217.554688 62.640625 C 216.878906 61.382812 216.007812 60.03125 215.136719 58.386719 C 214.945312 58 214.65625 57.613281 214.460938 57.128906 C 214.171875 56.742188 213.980469 56.355469 213.6875 55.871094 C 213.109375 55.003906 212.53125 54.132812 211.949219 53.261719 C 211.371094 52.296875 210.695312 51.425781 210.015625 50.460938 C 209.339844 49.492188 208.664062 48.527344 207.792969 47.460938 C 204.703125 43.402344 200.835938 39.148438 196.394531 34.703125 C 187.40625 26 175.234375 17.300781 160.640625 11.308594 C 146.050781 5.214844 129.046875 2.027344 112.039062 2.800781 C 103.539062 3.1875 95.035156 4.441406 86.917969 6.667969 C 78.800781 8.890625 70.976562 12.082031 63.824219 15.851562 C 49.429688 23.488281 37.640625 33.832031 29.234375 44.367188 C 20.730469 54.90625 15.320312 65.539062 12.132812 73.855469 C 8.941406 82.167969 7.6875 88.257812 7.398438 90.773438 C 7.398438 90.773438 7.492188 90.578125 7.589844 90.09375 C 7.6875 89.613281 7.878906 88.933594 8.074219 88.066406 C 8.554688 86.324219 9.234375 83.714844 10.296875 80.429688 C 11.359375 77.140625 12.90625 73.273438 14.835938 68.921875 C 16.867188 64.574219 19.378906 59.835938 22.664062 54.808594 C 29.136719 44.949219 38.414062 34.316406 50.683594 25.519531 C 62.859375 16.71875 77.738281 9.761719 93.875 6.472656 C 109.914062 3.1875 126.824219 3.574219 142.1875 7.246094 C 157.550781 10.824219 171.269531 17.6875 181.996094 25.613281 C 187.40625 29.578125 192.046875 33.734375 196.007812 37.796875 C 199.96875 41.855469 203.15625 45.914062 205.863281 49.492188 C 211.078125 56.839844 213.882812 62.542969 214.945312 65.152344 C 214.945312 65.152344 213.300781 61.964844 209.921875 56.644531 C 209.535156 55.96875 209.050781 55.292969 208.566406 54.519531 C 208.085938 53.84375 207.503906 53.070312 206.925781 52.296875 C 206.34375 51.523438 205.765625 50.75 205.1875 49.878906 C 204.507812 49.105469 203.832031 48.234375 203.15625 47.367188 C 201.804688 45.625 200.160156 43.886719 198.519531 42.046875 C 197.648438 41.179688 196.78125 40.210938 195.910156 39.34375 C 195.425781 38.859375 194.945312 38.375 194.558594 37.890625 C 194.074219 37.410156 193.589844 37.023438 193.109375 36.539062 C 191.175781 34.605469 188.953125 32.863281 186.730469 30.929688 C 185.570312 30.0625 184.410156 29.09375 183.15625 28.222656 C 181.996094 27.257812 180.644531 26.484375 179.386719 25.519531 C 174.167969 22.039062 168.371094 18.75 162.089844 15.945312 C 149.53125 10.339844 134.84375 6.859375 119.867188 6.667969 C 104.890625 6.375 89.71875 9.179688 76.386719 14.785156 C 62.957031 20.296875 51.457031 28.222656 42.566406 36.828125 C 38.125 41.082031 34.355469 45.527344 31.167969 49.78125 C 29.523438 51.910156 28.171875 54.035156 26.816406 56.066406 C 26.140625 57.03125 25.5625 58.097656 24.984375 59.0625 C 24.402344 60.03125 23.824219 60.996094 23.339844 61.964844 C 22.375 63.898438 21.40625 65.636719 20.632812 67.378906 C 19.863281 69.019531 19.089844 70.566406 18.605469 72.015625 C 18.027344 73.46875 17.542969 74.722656 17.15625 75.882812 C 16.769531 77.042969 16.480469 78.011719 16.285156 78.785156 C 16.285156 78.785156 16.480469 78.203125 16.960938 77.042969 C 17.15625 76.464844 17.445312 75.789062 17.734375 75.015625 C 18.027344 74.242188 18.410156 73.371094 18.796875 72.402344 C 19.570312 70.46875 20.632812 68.34375 21.890625 65.925781 C 23.148438 63.605469 24.5 60.996094 26.140625 58.484375 C 29.332031 53.359375 33.195312 48.332031 36.867188 44.175781 C 37.832031 43.207031 38.703125 42.144531 39.574219 41.277344 C 40.441406 40.308594 41.3125 39.535156 42.179688 38.761719 C 43.824219 37.214844 45.273438 35.957031 46.335938 35.089844 C 41.503906 39.535156 37.058594 44.464844 33.195312 49.6875 C 36.480469 45.625 40.054688 41.757812 43.921875 38.183594 C 47.785156 34.605469 51.941406 31.316406 56.191406 28.320312 C 61.121094 24.746094 66.335938 21.652344 71.84375 18.945312 C 71.84375 18.945312 71.167969 19.332031 69.914062 19.910156 C 68.753906 20.585938 67.015625 21.554688 64.984375 22.617188 C 60.925781 25.035156 55.707031 28.515625 50.878906 32.671875 C 46.046875 36.730469 41.503906 41.46875 38.316406 45.335938 C 37.542969 46.300781 36.769531 47.269531 36.191406 48.140625 C 35.515625 49.007812 34.933594 49.78125 34.453125 50.460938 C 33.484375 51.8125 32.90625 52.78125 32.710938 53.167969 C 32.710938 53.167969 29.234375 57.515625 32.324219 52.972656 C 32.710938 52.394531 33.195312 51.714844 33.871094 50.847656 C 34.160156 50.460938 34.546875 49.976562 34.933594 49.492188 C 35.320312 49.007812 35.804688 48.527344 36.289062 47.945312 C 36.769531 47.367188 37.253906 46.785156 37.832031 46.109375 C 38.414062 45.433594 39.089844 44.753906 39.765625 44.078125 C 40.441406 43.402344 41.117188 42.53125 41.988281 41.757812 C 42.859375 40.984375 43.726562 40.117188 44.597656 39.246094 C 48.367188 35.765625 53.292969 31.703125 59.863281 27.453125 C 66.433594 23.292969 74.839844 19.039062 85.371094 15.753906 C 85.371094 15.753906 86.144531 15.464844 87.691406 15.078125 C 88.464844 14.882812 89.429688 14.496094 90.589844 14.207031 C 91.75 13.917969 93.101562 13.53125 94.648438 13.144531 C 100.832031 11.695312 110.109375 10.148438 122.476562 10.628906 C 128.5625 10.824219 135.421875 11.695312 142.765625 13.53125 C 150.109375 15.269531 157.9375 18.171875 165.859375 22.230469 C 166.34375 22.519531 166.828125 22.714844 167.40625 23.003906 C 167.890625 23.292969 168.371094 23.585938 168.855469 23.875 C 169.820312 24.453125 170.882812 25.035156 171.851562 25.613281 C 172.816406 26.195312 173.78125 26.871094 174.847656 27.453125 C 175.328125 27.742188 175.8125 28.03125 176.296875 28.417969 C 176.777344 28.804688 177.261719 29.09375 177.746094 29.480469 C 181.707031 32.1875 185.570312 35.378906 189.339844 38.859375 C 193.109375 42.339844 196.683594 46.207031 200.066406 50.460938 C 200.933594 51.523438 201.804688 52.585938 202.578125 53.746094 C 203.351562 54.90625 204.21875 55.96875 204.992188 57.128906 C 206.539062 59.449219 208.085938 61.867188 209.4375 64.378906 C 212.238281 69.40625 214.75 74.722656 216.78125 80.429688 C 218.808594 86.132812 220.355469 92.125 221.417969 98.410156 C 223.542969 110.878906 223.542969 124.414062 220.644531 137.949219 C 217.84375 151.386719 212.144531 164.917969 203.542969 177.003906 C 194.945312 188.992188 183.542969 199.722656 169.820312 207.457031 C 162.960938 211.324219 155.617188 214.417969 147.886719 216.738281 C 140.15625 219.054688 132.042969 220.3125 123.828125 220.699219 C 115.617188 221.085938 107.210938 220.507812 98.898438 218.765625 C 90.6875 217.125 82.472656 214.417969 74.742188 210.644531 L 71.84375 209.195312 L 69.042969 207.648438 L 67.59375 206.875 L 66.242188 206.003906 L 63.4375 204.265625 L 60.734375 202.429688 L 59.378906 201.460938 L 58.125 200.496094 L 55.515625 198.464844 L 53.003906 196.339844 L 51.746094 195.273438 L 50.585938 194.113281 L 48.171875 191.890625 L 45.851562 189.570312 L 44.695312 188.410156 L 43.628906 187.15625 L 41.410156 184.640625 L 39.378906 182.03125 C 38.703125 181.160156 38.027344 180.289062 37.351562 179.421875 C 36.675781 178.550781 35.996094 177.679688 35.417969 176.714844 C 24.789062 162.503906 18.796875 144.910156 17.832031 126.832031 Z M 17.832031 126.832031 " fill-opacity="1" fill-rule="nonzero"/><g clip-path="url(#id4)"><path stroke-linecap="butt" transform="matrix(-0.966239, 0, 0, 0.966727, 233.110241, 0.286179)" fill="none" stroke-linejoin="miter" d="M 238.99952 121.001612 C 238.99952 121.001612 238.99952 123.199751 238.99952 127.301057 C 238.801426 131.398322 238.49822 137.398755 237.099433 144.898286 C 235.700645 152.401858 233.19819 161.400487 228.900759 171.098156 C 224.599285 180.799867 218.300698 191.200617 209.600724 201.100321 C 200.900751 210.899008 189.799391 220.20069 176.49878 227.300192 C 163.19817 234.399694 147.69831 239.398034 131.300962 240.901173 C 114.899572 242.501289 97.600693 240.598121 81.199302 235.098734 C 64.801954 229.599348 49.39912 220.20069 36.700878 208.098806 C 36.700878 208.098806 35.799347 207.298748 34.299491 205.698633 C 33.499029 204.898575 32.601541 203.900523 31.501916 202.700437 C 30.398249 201.50035 29.201598 200.001252 27.798768 198.498113 C 22.498737 192.000675 15.399688 182.100971 9.699427 168.601007 C 6.901852 161.901533 4.399396 154.300985 2.701446 146.098373 C 0.999453 137.899801 0.101965 128.998149 0.198991 119.801526 C 0.300059 110.600862 1.500753 101.000169 3.898097 91.500494 C 6.299483 82.000818 9.998589 72.699137 14.700294 63.801525 C 19.499025 55.00089 25.401424 46.701301 32.100242 39.298747 C 38.900128 32.001251 46.500477 25.398754 54.598082 20.101402 C 62.69973 14.80001 71.298635 10.500709 79.800515 7.401496 C 88.39942 4.298242 96.998325 2.298097 105.201042 1.199028 C 113.399716 0.099959 121.198158 -0.0980351 128.30125 0.301994 C 135.400299 0.702023 141.799955 1.801092 147.399148 3.001178 C 158.500508 5.498328 166.201925 8.799577 169.901031 10.500709 C 169.901031 10.500709 171.101724 11.098732 173.398 12.100825 C 175.601292 13.199894 178.900167 14.80001 182.80141 17.099165 C 183.298667 17.398177 183.799966 17.701229 184.301266 18.000241 C 184.798523 18.299252 185.299822 18.699281 185.801122 18.998292 C 186.799678 19.701373 187.899303 20.400414 188.998928 21.099454 C 191.198178 22.69957 193.498496 24.299685 195.899883 26.198812 C 200.601588 30.001106 205.598413 34.498401 210.401187 39.799793 C 215.098849 45.101186 219.699486 51.101619 223.701797 57.599057 C 227.700065 64.100537 231.100008 71.200039 233.699489 78.501576 C 236.29897 85.799072 238.199058 93.201627 239.298682 100.499123 C 240.398307 107.699642 240.798539 114.698127 240.600444 121.199606 " stroke="#aadcdc" stroke-width="0.037" stroke-opacity="1" stroke-miterlimit="4"/></g><g clip-path="url(#id5)"><path stroke-linecap="butt" transform="matrix(-0.966239, 0, 0, 0.966727, 233.110241, 0.286179)" fill="none" stroke-linejoin="miter" d="M 15.201594 62.698415 C 14.401132 63.999519 13.398533 65.999664 12.201882 68.399837 C 11.098214 70.901027 9.598358 73.798206 8.300639 77.301489 C 5.60009 84.198957 2.798472 93.100609 1.298616 103.400342 C -0.20124 113.700075 -0.601471 125.40193 1.100522 137.301778 C 2.600378 149.298604 6.198415 161.501504 11.498445 172.601295 C 14.198995 178.201699 17.198707 183.499051 20.501624 188.501432 C 23.901568 193.499773 27.499605 198.098085 31.198711 202.300408 C 38.799059 210.701014 46.900708 217.29947 54.298919 222.200834 C 61.701174 227.098157 68.298923 230.399405 73.000628 232.39955 C 74.201322 232.900596 75.199878 233.401642 76.101409 233.700654 C 76.998897 234.100682 77.799359 234.399694 78.401727 234.601729 C 79.000053 234.799723 79.501352 235.001758 79.800515 235.199752 C 80.099677 235.300769 80.301814 235.401786 80.301814 235.401786 C 81.401439 235.801815 82.501064 236.201844 83.600689 236.500856 C 84.199014 236.69885 84.700314 236.900885 85.298639 237.098879 C 85.901007 237.300913 86.499333 237.401931 87.101701 237.599925 C 88.298351 237.898936 89.499045 238.298965 90.699738 238.602017 C 91.900432 238.901029 93.198151 239.20004 94.499912 239.499052 C 96.998325 240.101115 99.698874 240.501144 102.399424 240.99815 C 103.798211 241.200185 105.099973 241.301202 106.498761 241.499196 C 107.901591 241.701231 109.300379 241.798208 110.699166 241.899225 C 112.101997 242.000242 113.601853 242.10126 115.00064 242.198236 C 116.399428 242.198236 117.899284 242.299254 119.39914 242.299254 C 120.098534 242.299254 120.898996 242.299254 121.59839 242.299254 C 122.301826 242.299254 123.098246 242.198236 123.801682 242.198236 C 125.301538 242.10126 126.801394 242.10126 128.30125 242.000242 C 134.300674 241.600214 140.498193 240.699138 146.699754 239.301058 C 152.901315 237.898936 159.001808 235.898792 164.900163 233.599636 C 166.400019 233.001613 167.899875 232.39955 169.298663 231.700509 L 173.701205 229.599348 L 177.901611 227.300192 C 179.300398 226.601151 180.699186 225.700076 182.000948 224.900019 C 187.499072 221.59877 192.601008 217.800516 197.399739 213.69921 C 202.101444 209.601945 206.499944 205.201627 210.401187 200.599275 C 214.298387 196.000964 217.799398 191.200617 220.79911 186.501288 C 223.899891 181.700942 226.301278 176.799578 228.500528 172.100249 C 232.700933 162.600574 235.300414 153.601945 236.699202 145.900379 C 238.097989 138.198813 238.49822 131.899368 238.700357 127.600068 C 238.801426 125.40193 238.700357 123.700797 238.700357 122.601728 C 238.700357 121.498618 238.700357 120.900595 238.700357 120.900595 " stroke="#3aafaf" stroke-width="0.037" stroke-opacity="1" stroke-miterlimit="4"/></g><path stroke-linecap="butt" transform="matrix(-0.966239, 0, 0, 0.966727, 233.110241, 0.286179)" fill="none" stroke-linejoin="miter" d="M 22.401711 60.100248 C 22.401711 60.100248 22.801943 59.401208 23.699431 58.100104 C 24.099662 57.49804 24.600961 56.697982 25.300355 55.699931 C 25.999749 54.798855 26.699143 53.699786 27.600673 52.600717 C 31.101685 47.901388 36.401715 41.399909 43.900996 34.700435 C 47.70117 31.29817 52.09967 27.899945 56.8984 24.598696 C 61.7982 21.398466 67.300367 18.299252 73.198723 15.600067 C 84.999477 10.201698 98.898412 6.500421 113.298647 5.599346 C 127.698882 4.698271 142.499348 6.399403 156.20019 10.900738 C 169.901031 15.301056 182.199042 22.299541 192.301846 30.300118 C 202.400607 38.300695 210.097981 47.299324 215.701217 55.501936 C 221.30041 63.700508 224.700353 71.099022 226.798535 76.299397 " stroke="#3aafaf" stroke-width="0.037" stroke-opacity="1" stroke-miterlimit="4"/><path stroke-linecap="butt" transform="matrix(-0.966239, 0, 0, 0.966727, 233.110241, 0.286179)" fill="none" stroke-linejoin="miter" d="M 12.100813 116.201266 C 12.100813 116.201266 12.100813 115.999231 12.100813 115.498185 C 12.100813 115.098156 12.201882 114.399116 12.298908 113.599058 C 12.399976 112.799 12.501045 111.699931 12.59807 110.499844 C 12.699139 109.299758 12.901276 107.901677 13.09937 106.398538 C 13.200438 105.598481 13.301507 104.798423 13.398533 103.998365 C 13.600669 103.198307 13.701738 102.301273 13.899832 101.299181 C 14.101969 100.398105 14.198995 99.400054 14.498157 98.402002 C 14.700294 97.399909 14.999457 96.401857 15.201594 95.298748 C 15.698851 93.201627 16.398245 90.999447 17.101681 88.599274 C 17.501912 87.399188 17.898101 86.300118 18.298332 84.999014 C 18.500469 84.400991 18.698563 83.798928 18.9007 83.200905 C 19.098794 82.598841 19.401999 82.000818 19.600094 81.398755 C 20.101393 80.198668 20.59865 78.901605 21.201018 77.600501 C 21.799343 76.299397 22.401711 74.998293 23.000037 73.70123 C 24.301799 71.099022 25.700586 68.500854 27.301511 65.80167 C 30.499317 60.500277 34.299491 55.198884 38.697991 50.099526 C 47.70117 40.001828 59.299787 30.801164 72.39826 24.299685 C 85.500776 17.798206 99.998037 13.999952 113.998041 13.199894 C 127.998045 12.399836 141.399723 14.298963 152.501084 17.899223 C 158.100277 19.701373 163.19817 21.701518 167.701781 24.000673 C 172.201349 26.299829 176.098549 28.502008 179.300398 30.700147 C 180.100861 31.201193 180.901323 31.799216 181.701785 32.300262 C 182.401179 32.801309 183.100573 33.399331 183.799966 33.79936 C 184.49936 34.300407 185.101728 34.801453 185.700054 35.201482 C 186.298379 35.698487 186.799678 36.098516 187.300978 36.498545 C 188.299534 37.298603 189.201065 38.09866 189.900459 38.700724 C 190.599853 39.399764 191.198178 39.900811 191.598409 40.30084 " stroke="#aadcdc" stroke-width="0.037" stroke-opacity="1" stroke-miterlimit="4"/></g></g></g></g><g fill="#fffdfd" fill-opacity="1"><g transform="translate(56.086207, 198.749987)"><g><path d="M 3.609375 0.0625 C 2.785156 0.0625 2.375 -0.175781 2.375 -0.65625 L 2.375 -22.0625 C 2.375 -22.539062 2.785156 -22.78125 3.609375 -22.78125 L 4.375 -22.78125 C 4.707031 -22.78125 4.96875 -22.726562 5.15625 -22.625 C 5.351562 -22.53125 5.515625 -22.367188 5.640625 -22.140625 L 13.171875 -7.625 C 13.472656 -7.0625 13.753906 -6.378906 14.015625 -5.578125 L 14.1875 -5.640625 C 14.007812 -6.398438 13.921875 -7.113281 13.921875 -7.78125 L 13.921875 -22.0625 C 13.921875 -22.539062 14.332031 -22.78125 15.15625 -22.78125 L 15.546875 -22.78125 C 16.367188 -22.78125 16.78125 -22.539062 16.78125 -22.0625 L 16.78125 -0.65625 C 16.78125 -0.175781 16.367188 0.0625 15.546875 0.0625 L 14.859375 0.0625 C 14.253906 0.0625 13.863281 -0.0976562 13.6875 -0.421875 L 5.96875 -15.421875 C 5.664062 -15.984375 5.382812 -16.660156 5.125 -17.453125 L 4.96875 -17.390625 C 5.132812 -16.640625 5.21875 -15.925781 5.21875 -15.25 L 5.21875 -0.65625 C 5.21875 -0.175781 4.804688 0.0625 3.984375 0.0625 Z M 3.609375 0.0625 "/></g></g></g><g fill="#fffdfd" fill-opacity="1"><g transform="translate(75.231221, 198.749987)"><g><path d="M 9.46875 0.1875 C 7.15625 0.1875 5.363281 -0.382812 4.09375 -1.53125 C 2.832031 -2.675781 2.203125 -4.273438 2.203125 -6.328125 L 2.203125 -22.0625 C 2.203125 -22.539062 2.613281 -22.78125 3.4375 -22.78125 L 3.890625 -22.78125 C 4.710938 -22.78125 5.125 -22.539062 5.125 -22.0625 L 5.125 -6.234375 C 5.125 -5.066406 5.53125 -4.113281 6.34375 -3.375 C 7.15625 -2.632812 8.195312 -2.265625 9.46875 -2.265625 C 10.726562 -2.265625 11.765625 -2.640625 12.578125 -3.390625 C 13.390625 -4.140625 13.796875 -5.085938 13.796875 -6.234375 L 13.796875 -22.0625 C 13.796875 -22.539062 14.207031 -22.78125 15.03125 -22.78125 L 15.484375 -22.78125 C 16.304688 -22.78125 16.71875 -22.539062 16.71875 -22.0625 L 16.71875 -6.328125 C 16.71875 -4.273438 16.085938 -2.675781 14.828125 -1.53125 C 13.578125 -0.382812 11.789062 0.1875 9.46875 0.1875 Z M 9.46875 0.1875 "/></g></g></g><g fill="#fffdfd" fill-opacity="1"><g transform="translate(94.149093, 198.749987)"><g><path d="M 7.171875 0.0625 C 6.347656 0.0625 5.9375 -0.175781 5.9375 -0.65625 L 5.9375 -20.25 L 1.265625 -20.25 C 0.859375 -20.25 0.65625 -20.570312 0.65625 -21.21875 L 0.65625 -21.75 C 0.65625 -22.394531 0.859375 -22.71875 1.265625 -22.71875 L 13.46875 -22.71875 C 13.707031 -22.71875 13.875 -22.640625 13.96875 -22.484375 C 14.0625 -22.335938 14.109375 -22.09375 14.109375 -21.75 L 14.109375 -21.21875 C 14.109375 -20.875 14.0625 -20.625 13.96875 -20.46875 C 13.875 -20.320312 13.707031 -20.25 13.46875 -20.25 L 8.859375 -20.25 L 8.859375 -0.65625 C 8.859375 -0.175781 8.445312 0.0625 7.625 0.0625 Z M 7.171875 0.0625 "/></g></g></g><g fill="#fffdfd" fill-opacity="1"><g transform="translate(108.881026, 198.749987)"><g><path d="M 3.734375 0.0625 C 2.910156 0.0625 2.5 -0.175781 2.5 -0.65625 L 2.5 -21.75 C 2.5 -22.09375 2.566406 -22.335938 2.703125 -22.484375 C 2.847656 -22.640625 3.070312 -22.71875 3.375 -22.71875 L 8.171875 -22.71875 C 10.316406 -22.71875 11.90625 -22.257812 12.9375 -21.34375 C 13.976562 -20.4375 14.5 -18.976562 14.5 -16.96875 C 14.5 -15.625 14.234375 -14.492188 13.703125 -13.578125 C 13.179688 -12.660156 12.453125 -11.960938 11.515625 -11.484375 L 11.515625 -11.359375 C 11.953125 -11.140625 12.332031 -10.71875 12.65625 -10.09375 C 12.976562 -9.46875 13.347656 -8.535156 13.765625 -7.296875 L 15.796875 -0.90625 C 15.867188 -0.707031 15.90625 -0.554688 15.90625 -0.453125 C 15.90625 -0.109375 15.484375 0.0625 14.640625 0.0625 L 14.078125 0.0625 C 13.773438 0.0625 13.507812 0.015625 13.28125 -0.078125 C 13.0625 -0.179688 12.929688 -0.304688 12.890625 -0.453125 L 10.9375 -6.8125 C 10.550781 -8.050781 10.113281 -8.890625 9.625 -9.328125 C 9.132812 -9.773438 8.414062 -10 7.46875 -10 L 5.421875 -10 L 5.421875 -0.65625 C 5.421875 -0.175781 5.007812 0.0625 4.1875 0.0625 Z M 8.671875 -12.46875 C 9.441406 -12.46875 10.101562 -12.859375 10.65625 -13.640625 C 11.207031 -14.429688 11.484375 -15.367188 11.484375 -16.453125 C 11.484375 -17.734375 11.21875 -18.6875 10.6875 -19.3125 C 10.15625 -19.9375 9.414062 -20.25 8.46875 -20.25 L 5.390625 -20.25 L 5.390625 -12.46875 Z M 8.671875 -12.46875 "/></g></g></g><g fill="#fffdfd" fill-opacity="1"><g transform="translate(125.527452, 198.749987)"><g><path d="M 4.03125 0.0625 C 3.207031 0.0625 2.796875 -0.175781 2.796875 -0.65625 L 2.796875 -22.0625 C 2.796875 -22.539062 3.207031 -22.78125 4.03125 -22.78125 L 4.515625 -22.78125 C 5.316406 -22.78125 5.71875 -22.539062 5.71875 -22.0625 L 5.71875 -0.65625 C 5.71875 -0.175781 5.316406 0.0625 4.515625 0.0625 Z M 4.03125 0.0625 "/></g></g></g><g fill="#fffdfd" fill-opacity="1"><g transform="translate(134.029141, 198.749987)"><g><path d="M 7.171875 0.0625 C 6.347656 0.0625 5.9375 -0.175781 5.9375 -0.65625 L 5.9375 -20.25 L 1.265625 -20.25 C 0.859375 -20.25 0.65625 -20.570312 0.65625 -21.21875 L 0.65625 -21.75 C 0.65625 -22.394531 0.859375 -22.71875 1.265625 -22.71875 L 13.46875 -22.71875 C 13.707031 -22.71875 13.875 -22.640625 13.96875 -22.484375 C 14.0625 -22.335938 14.109375 -22.09375 14.109375 -21.75 L 14.109375 -21.21875 C 14.109375 -20.875 14.0625 -20.625 13.96875 -20.46875 C 13.875 -20.320312 13.707031 -20.25 13.46875 -20.25 L 8.859375 -20.25 L 8.859375 -0.65625 C 8.859375 -0.175781 8.445312 0.0625 7.625 0.0625 Z M 7.171875 0.0625 "/></g></g></g><g fill="#fffdfd" fill-opacity="1"><g transform="translate(148.761074, 198.749987)"><g><path d="M 4.03125 0.0625 C 3.207031 0.0625 2.796875 -0.175781 2.796875 -0.65625 L 2.796875 -22.0625 C 2.796875 -22.539062 3.207031 -22.78125 4.03125 -22.78125 L 4.515625 -22.78125 C 5.316406 -22.78125 5.71875 -22.539062 5.71875 -22.0625 L 5.71875 -0.65625 C 5.71875 -0.175781 5.316406 0.0625 4.515625 0.0625 Z M 4.03125 0.0625 "/></g></g></g><g fill="#fffdfd" fill-opacity="1"><g transform="translate(157.262763, 198.749987)"><g><path d="M 9.703125 0.1875 C 7.066406 0.1875 5.054688 -0.769531 3.671875 -2.6875 C 2.285156 -4.613281 1.59375 -7.523438 1.59375 -11.421875 C 1.59375 -19.078125 4.296875 -22.90625 9.703125 -22.90625 C 15.128906 -22.90625 17.84375 -19.078125 17.84375 -11.421875 C 17.84375 -7.523438 17.148438 -4.613281 15.765625 -2.6875 C 14.378906 -0.769531 12.359375 0.1875 9.703125 0.1875 Z M 9.734375 -2.265625 C 13.148438 -2.265625 14.859375 -5.316406 14.859375 -11.421875 C 14.859375 -17.441406 13.148438 -20.453125 9.734375 -20.453125 C 8.023438 -20.453125 6.742188 -19.71875 5.890625 -18.25 C 5.035156 -16.789062 4.609375 -14.515625 4.609375 -11.421875 C 4.609375 -5.316406 6.316406 -2.265625 9.734375 -2.265625 Z M 9.734375 -2.265625 "/></g></g></g><g fill="#fffdfd" fill-opacity="1"><g transform="translate(176.699819, 198.749987)"><g><path d="M 3.609375 0.0625 C 2.785156 0.0625 2.375 -0.175781 2.375 -0.65625 L 2.375 -22.0625 C 2.375 -22.539062 2.785156 -22.78125 3.609375 -22.78125 L 4.375 -22.78125 C 4.707031 -22.78125 4.96875 -22.726562 5.15625 -22.625 C 5.351562 -22.53125 5.515625 -22.367188 5.640625 -22.140625 L 13.171875 -7.625 C 13.472656 -7.0625 13.753906 -6.378906 14.015625 -5.578125 L 14.1875 -5.640625 C 14.007812 -6.398438 13.921875 -7.113281 13.921875 -7.78125 L 13.921875 -22.0625 C 13.921875 -22.539062 14.332031 -22.78125 15.15625 -22.78125 L 15.546875 -22.78125 C 16.367188 -22.78125 16.78125 -22.539062 16.78125 -22.0625 L 16.78125 -0.65625 C 16.78125 -0.175781 16.367188 0.0625 15.546875 0.0625 L 14.859375 0.0625 C 14.253906 0.0625 13.863281 -0.0976562 13.6875 -0.421875 L 5.96875 -15.421875 C 5.664062 -15.984375 5.382812 -16.660156 5.125 -17.453125 L 4.96875 -17.390625 C 5.132812 -16.640625 5.21875 -15.925781 5.21875 -15.25 L 5.21875 -0.65625 C 5.21875 -0.175781 4.804688 0.0625 3.984375 0.0625 Z M 3.609375 0.0625 "/></g></g></g><g fill="#fffdfd" fill-opacity="1"><g transform="translate(250.906877, 208.499986)"><g><path d="M 6.890625 0.125 C 5.398438 0.125 4.65625 -0.304688 4.65625 -1.171875 L 4.65625 -40.078125 C 4.65625 -40.941406 5.398438 -41.375 6.890625 -41.375 L 7.78125 -41.375 C 9.226562 -41.375 9.953125 -40.941406 9.953125 -40.078125 L 9.953125 -23.390625 L 25.46875 -23.390625 L 25.46875 -40.078125 C 25.46875 -40.941406 26.210938 -41.375 27.703125 -41.375 L 28.53125 -41.375 C 30.019531 -41.375 30.765625 -40.941406 30.765625 -40.078125 L 30.765625 -1.171875 C 30.765625 -0.304688 30.019531 0.125 28.53125 0.125 L 27.703125 0.125 C 26.210938 0.125 25.46875 -0.304688 25.46875 -1.171875 L 25.46875 -18.921875 L 9.953125 -18.921875 L 9.953125 -1.171875 C 9.953125 -0.304688 9.226562 0.125 7.78125 0.125 Z M 6.890625 0.125 "/></g></g></g><g fill="#fffdfd" fill-opacity="1"><g transform="translate(286.326019, 208.499986)"><g><path d="M 17.203125 0.359375 C 13.003906 0.359375 9.753906 -0.679688 7.453125 -2.765625 C 5.148438 -4.847656 4 -7.757812 4 -11.5 L 4 -40.078125 C 4 -40.941406 4.75 -41.375 6.25 -41.375 L 7.078125 -41.375 C 8.566406 -41.375 9.3125 -40.941406 9.3125 -40.078125 L 9.3125 -11.3125 C 9.3125 -9.195312 10.046875 -7.46875 11.515625 -6.125 C 12.992188 -4.789062 14.890625 -4.125 17.203125 -4.125 C 19.484375 -4.125 21.359375 -4.800781 22.828125 -6.15625 C 24.304688 -7.507812 25.046875 -9.226562 25.046875 -11.3125 L 25.046875 -40.078125 C 25.046875 -40.941406 25.789062 -41.375 27.28125 -41.375 L 28.109375 -41.375 C 29.609375 -41.375 30.359375 -40.941406 30.359375 -40.078125 L 30.359375 -11.5 C 30.359375 -7.757812 29.21875 -4.847656 26.9375 -2.765625 C 24.65625 -0.679688 21.410156 0.359375 17.203125 0.359375 Z M 17.203125 0.359375 "/></g></g></g><g fill="#fffdfd" fill-opacity="1"><g transform="translate(320.68435, 208.499986)"><g><path d="M 6.25 0 C 5.65625 0 5.226562 -0.132812 4.96875 -0.40625 C 4.71875 -0.6875 4.59375 -1.140625 4.59375 -1.765625 L 4.59375 -39.484375 C 4.59375 -40.117188 4.71875 -40.570312 4.96875 -40.84375 C 5.226562 -41.113281 5.65625 -41.25 6.25 -41.25 L 16.4375 -41.25 C 20.132812 -41.25 22.914062 -40.316406 24.78125 -38.453125 C 26.644531 -36.585938 27.578125 -34.046875 27.578125 -30.828125 C 27.578125 -28.859375 27.046875 -26.988281 25.984375 -25.21875 C 24.929688 -23.457031 23.695312 -22.335938 22.28125 -21.859375 L 22.28125 -21.625 C 23.8125 -21.082031 25.3125 -20.101562 26.78125 -18.6875 C 28.257812 -17.269531 29 -14.988281 29 -11.84375 C 29 -7.800781 27.945312 -4.816406 25.84375 -2.890625 C 23.738281 -0.960938 20.601562 0 16.4375 0 Z M 16.03125 -23.453125 C 17.832031 -23.453125 19.296875 -24.109375 20.421875 -25.421875 C 21.546875 -26.742188 22.109375 -28.390625 22.109375 -30.359375 C 22.109375 -32.554688 21.601562 -34.175781 20.59375 -35.21875 C 19.59375 -36.257812 18.03125 -36.78125 15.90625 -36.78125 L 9.90625 -36.78125 L 9.90625 -23.453125 Z M 17.5 -4.484375 C 19.382812 -4.484375 20.867188 -5.160156 21.953125 -6.515625 C 23.035156 -7.867188 23.578125 -9.722656 23.578125 -12.078125 C 23.578125 -14.242188 22.976562 -15.9375 21.78125 -17.15625 C 20.582031 -18.375 18.878906 -18.984375 16.671875 -18.984375 L 9.90625 -18.984375 L 9.90625 -4.484375 Z M 17.5 -4.484375 "/></g></g></g></svg>