<svg xmlns="http://www.w3.org/2000/svg" xmlns:xlink="http://www.w3.org/1999/xlink" width="500" zoomAndPan="magnify" viewBox="0 0 375 374.999991" height="500" preserveAspectRatio="xMidYMid meet" version="1.0"><defs><g/><clipPath id="id1"><path d="M 0 172.769531 L 375 172.769531 L 375 202.019531 L 0 202.019531 Z M 0 172.769531 " clip-rule="nonzero"/></clipPath></defs><rect x="-37.5" width="450" fill="#ffffff" y="-37.499999" height="449.999989" fill-opacity="1"/><rect x="-37.5" width="450" fill="#fdf5f3" y="-37.499999" height="449.999989" fill-opacity="1"/><rect x="-37.5" width="450" fill="#ffffff" y="-37.499999" height="449.999989" fill-opacity="1"/><rect x="-37.5" width="450" fill="#fdf5f3" y="-37.499999" height="449.999989" fill-opacity="1"/><g fill="#000000" fill-opacity="1"><g transform="translate(14.217316, 216.790503)"><g><path d="M 105.75 -61.40625 L 25.703125 -61.40625 L 25.703125 0 L 18.96875 0 L 18.96875 -124.71875 L 25.703125 -124.71875 L 25.703125 -68.484375 L 105.75 -68.484375 L 105.75 -124.71875 L 112.46875 -124.71875 L 112.46875 0 L 105.75 0 Z M 105.75 -61.40625 "/></g></g></g><g fill="#000000" fill-opacity="1"><g transform="translate(138.244816, 216.790503)"><g><path d="M 101.609375 -38.640625 C 101.609375 -29.609375 100.082031 -22.101562 97.03125 -16.125 C 93.976562 -10.144531 89.390625 -5.675781 83.265625 -2.71875 C 77.148438 0.238281 69.460938 1.71875 60.203125 1.71875 C 50.773438 1.71875 43.007812 0.179688 36.90625 -2.890625 C 30.8125 -5.960938 26.296875 -10.675781 23.359375 -17.03125 C 20.429688 -23.382812 18.96875 -31.453125 18.96875 -41.234375 L 18.96875 -124.71875 L 26.390625 -124.71875 L 26.390625 -38.296875 C 26.390625 -27.429688 29.160156 -19.132812 34.703125 -13.40625 C 40.253906 -7.6875 48.753906 -4.828125 60.203125 -4.828125 C 67.910156 -4.828125 74.335938 -6.078125 79.484375 -8.578125 C 84.628906 -11.078125 88.476562 -14.8125 91.03125 -19.78125 C 93.59375 -24.757812 94.875 -30.929688 94.875 -38.296875 L 94.875 -124.71875 L 101.609375 -124.71875 Z M 101.609375 -38.640625 "/></g></g></g><g fill="#000000" fill-opacity="1"><g transform="translate(247.609803, 216.790503)"><g><path d="M 18.96875 0 L 18.96875 -124.71875 L 54 -124.71875 C 67.96875 -124.71875 78.816406 -121.957031 86.546875 -116.4375 C 94.285156 -110.914062 98.15625 -102.921875 98.15625 -92.453125 C 98.15625 -85.378906 96.285156 -79.398438 92.546875 -74.515625 C 88.804688 -69.628906 82.453125 -65.894531 73.484375 -63.3125 C 78.085938 -62.5625 82.128906 -61.335938 85.609375 -59.640625 C 89.085938 -57.941406 91.988281 -55.84375 94.3125 -53.34375 C 96.644531 -50.84375 98.382812 -47.910156 99.53125 -44.546875 C 100.675781 -41.179688 101.25 -37.429688 101.25 -33.296875 C 101.25 -22.191406 97.148438 -13.863281 88.953125 -8.3125 C 80.765625 -2.769531 69.285156 0 54.515625 0 Z M 25.703125 -7.078125 L 53.640625 -7.078125 C 66.929688 -7.078125 77.066406 -8.988281 84.046875 -12.8125 C 91.035156 -16.632812 94.53125 -23.113281 94.53125 -32.25 C 94.53125 -38.976562 92.789062 -44.34375 89.3125 -48.34375 C 85.832031 -52.34375 81.171875 -55.203125 75.328125 -56.921875 C 69.492188 -58.648438 63.070312 -59.515625 56.0625 -59.515625 L 25.703125 -59.515625 Z M 25.703125 -66.578125 L 56.0625 -66.578125 C 59.96875 -66.578125 63.976562 -66.921875 68.09375 -67.609375 C 72.207031 -68.304688 76.03125 -69.5625 79.5625 -71.375 C 83.101562 -73.1875 85.960938 -75.726562 88.140625 -79 C 90.328125 -82.28125 91.421875 -86.476562 91.421875 -91.59375 C 91.421875 -100.738281 87.910156 -107.394531 80.890625 -111.5625 C 73.878906 -115.726562 64.679688 -117.8125 53.296875 -117.8125 L 25.703125 -117.8125 Z M 25.703125 -66.578125 "/></g></g></g><g clip-path="url(#id1)"><path fill="#fdf5f3" d="M 0.0195312 172.769531 L 374.980469 172.769531 L 374.980469 202.019531 L 0.0195312 202.019531 L 0.0195312 172.769531 " fill-opacity="1" fill-rule="nonzero"/></g><g fill="#000000" fill-opacity="1"><g transform="translate(117.800478, 195.036405)"><g><path d="M 12 -15.328125 L 13.96875 -15.328125 L 13.96875 0 L 12.21875 0 L 3.984375 -12.078125 L 3.984375 0 L 2.03125 0 L 2.03125 -15.328125 L 3.90625 -15.328125 L 12 -3.40625 Z M 12 -15.328125 "/></g></g></g><g fill="#000000" fill-opacity="1"><g transform="translate(136.974308, 195.036405)"><g><path d="M 13.234375 -5.296875 C 13.234375 -4.117188 13.035156 -3.117188 12.640625 -2.296875 C 12.253906 -1.484375 11.648438 -0.859375 10.828125 -0.421875 C 10.003906 0.00390625 8.9375 0.21875 7.625 0.21875 C 6.289062 0.21875 5.210938 0 4.390625 -0.4375 C 3.566406 -0.882812 2.96875 -1.53125 2.59375 -2.375 C 2.21875 -3.21875 2.03125 -4.257812 2.03125 -5.5 L 2.03125 -15.328125 L 4.0625 -15.328125 L 4.0625 -5.203125 C 4.0625 -3.960938 4.367188 -3.035156 4.984375 -2.421875 C 5.597656 -1.804688 6.476562 -1.5 7.625 -1.5 C 8.394531 -1.5 9.050781 -1.632812 9.59375 -1.90625 C 10.132812 -2.175781 10.546875 -2.582031 10.828125 -3.125 C 11.117188 -3.675781 11.265625 -4.367188 11.265625 -5.203125 L 11.265625 -15.328125 L 13.234375 -15.328125 Z M 13.234375 -5.296875 "/></g></g></g><g fill="#000000" fill-opacity="1"><g transform="translate(155.013441, 195.036405)"><g><path d="M 0.484375 -13.53125 L 0.484375 -15.328125 L 12.078125 -15.328125 L 12.078125 -13.53125 L 7.40625 -13.53125 L 7.40625 0 L 5.4375 0 L 5.4375 -13.53125 Z M 0.484375 -13.53125 "/></g></g></g><g fill="#000000" fill-opacity="1"><g transform="translate(170.783184, 195.036405)"><g><path d="M 12.984375 0 L 10.90625 0 L 8.109375 -6.609375 L 3.984375 -6.609375 L 3.984375 0 L 2.03125 0 L 2.03125 -15.328125 L 7.96875 -15.328125 C 9.0625 -15.328125 9.976562 -15.160156 10.71875 -14.828125 C 11.46875 -14.492188 12.023438 -14.015625 12.390625 -13.390625 C 12.753906 -12.765625 12.9375 -12.015625 12.9375 -11.140625 C 12.9375 -10.304688 12.789062 -9.613281 12.5 -9.0625 C 12.207031 -8.507812 11.832031 -8.066406 11.375 -7.734375 C 10.925781 -7.398438 10.457031 -7.140625 9.96875 -6.953125 Z M 7.328125 -8.234375 C 8.472656 -8.234375 9.359375 -8.46875 9.984375 -8.9375 C 10.617188 -9.40625 10.9375 -10.101562 10.9375 -11.03125 C 10.9375 -11.925781 10.65625 -12.597656 10.09375 -13.046875 C 9.53125 -13.503906 8.765625 -13.734375 7.796875 -13.734375 L 3.984375 -13.734375 L 3.984375 -8.234375 Z M 7.328125 -8.234375 "/></g></g></g><g fill="#000000" fill-opacity="1"><g transform="translate(188.313291, 195.036405)"><g><path d="M 2.03125 -15.328125 L 3.984375 -15.328125 L 3.984375 0 L 2.03125 0 Z M 2.03125 -15.328125 "/></g></g></g><g fill="#000000" fill-opacity="1"><g transform="translate(197.497555, 195.036405)"><g><path d="M 0.484375 -13.53125 L 0.484375 -15.328125 L 12.078125 -15.328125 L 12.078125 -13.53125 L 7.40625 -13.53125 L 7.40625 0 L 5.4375 0 L 5.4375 -13.53125 Z M 0.484375 -13.53125 "/></g></g></g><g fill="#000000" fill-opacity="1"><g transform="translate(213.267298, 195.036405)"><g><path d="M 2.03125 -15.328125 L 3.984375 -15.328125 L 3.984375 0 L 2.03125 0 Z M 2.03125 -15.328125 "/></g></g></g><g fill="#000000" fill-opacity="1"><g transform="translate(222.451562, 195.036405)"><g><path d="M 7.796875 0.21875 C 6.429688 0.21875 5.25 -0.0859375 4.25 -0.703125 C 3.257812 -1.316406 2.492188 -2.207031 1.953125 -3.375 C 1.410156 -4.550781 1.140625 -5.972656 1.140625 -7.640625 C 1.140625 -9.304688 1.410156 -10.726562 1.953125 -11.90625 C 2.503906 -13.082031 3.28125 -13.984375 4.28125 -14.609375 C 5.28125 -15.234375 6.453125 -15.546875 7.796875 -15.546875 C 9.160156 -15.546875 10.335938 -15.234375 11.328125 -14.609375 C 12.316406 -13.992188 13.078125 -13.097656 13.609375 -11.921875 C 14.148438 -10.742188 14.421875 -9.316406 14.421875 -7.640625 C 14.421875 -5.972656 14.148438 -4.550781 13.609375 -3.375 C 13.078125 -2.207031 12.316406 -1.316406 11.328125 -0.703125 C 10.335938 -0.0859375 9.160156 0.21875 7.796875 0.21875 Z M 7.796875 -1.5 C 8.742188 -1.5 9.550781 -1.710938 10.21875 -2.140625 C 10.882812 -2.566406 11.390625 -3.234375 11.734375 -4.140625 C 12.085938 -5.046875 12.265625 -6.203125 12.265625 -7.609375 C 12.265625 -9.035156 12.085938 -10.207031 11.734375 -11.125 C 11.378906 -12.050781 10.867188 -12.734375 10.203125 -13.171875 C 9.546875 -13.609375 8.742188 -13.828125 7.796875 -13.828125 C 6.867188 -13.828125 6.066406 -13.601562 5.390625 -13.15625 C 4.722656 -12.71875 4.207031 -12.039062 3.84375 -11.125 C 3.488281 -10.207031 3.3125 -9.035156 3.3125 -7.609375 C 3.3125 -6.203125 3.488281 -5.046875 3.84375 -4.140625 C 4.207031 -3.234375 4.722656 -2.566406 5.390625 -2.140625 C 6.066406 -1.710938 6.867188 -1.5 7.796875 -1.5 Z M 7.796875 -1.5 "/></g></g></g><g fill="#000000" fill-opacity="1"><g transform="translate(241.201208, 195.036405)"><g><path d="M 12 -15.328125 L 13.96875 -15.328125 L 13.96875 0 L 12.21875 0 L 3.984375 -12.078125 L 3.984375 0 L 2.03125 0 L 2.03125 -15.328125 L 3.90625 -15.328125 L 12 -3.40625 Z M 12 -15.328125 "/></g></g></g></svg>